# xmcd CD database file
#
# Track frame offsets:
#	150
#	11510
#	26472
#	38697
#	48707
#	63897
#	79347
#	91270
#	100160
#	115982
#	127160
#	137057
#	152582
#	162367
#
# Disc length: 2369 seconds
#
# Revision: 4
# Processed by: cddbd v1.5PL3 Copyright (c) Steve Scherf et al.
# Submitted via: CDex 1.51
#
DISCID=b1093f0e
DTITLE=Peter Keane - Walkin' Around
DYEAR=1996
DGENRE=Blues
TTITLE0=Walkin' Around
TTITLE1=Tylersville Road
TTITLE2=You Haunt My Dreams
TTITLE3=Louisiana Special
TTITLE4=I Want You
TTITLE5=Poor Jessie
TTITLE6=Don't Make Promises
TTITLE7=I Know My Baby
TTITLE8=I Wonder if I'll ever Leave
TTITLE9=If You Don't Want Me
TTITLE10=Dirty Deal Blues
TTITLE11=Pack Up Your Sorrows
TTITLE12=New Orleans
TTITLE13=Blow Whistle Blow
EXTD=YEAR: 1996
EXTT0=
EXTT1=
EXTT2=
EXTT3=
EXTT4=
EXTT5=
EXTT6=
EXTT7=
EXTT8=
EXTT9=
EXTT10=
EXTT11=
EXTT12=
EXTT13=
PLAYORDER=
